<?xml version="1.0" encoding="UTF-8"?>
<svg width="24px" height="24px" viewBox="0 0 24 24" version="1.1" xmlns="http://www.w3.org/2000/svg">
    <g stroke="none" stroke-width="1" fill="none" fill-rule="evenodd">
        <path d="M12,2C6.48,2 2,6.48 2,12C2,13.96 2.58,15.75 3.54,17.29L2.28,22L7.11,20.77C8.56,21.64 10.21,22 12,22C17.52,22 22,17.52 22,12C22,6.48 17.52,2 12,2ZM12,20C10.42,20 8.95,19.56 7.65,18.76L7.28,18.55L4.27,19.31L5.05,16.4L4.81,16C3.91,14.64 3.4,13.08 3.4,11.4C3.4,7.36 7.36,3.4 11.4,3.4C15.44,3.4 19.4,7.36 19.4,11.4C19.4,15.44 15.44,19.4 11.4,19.4L12,20ZM8.58,7.29C8.38,7.29 8.08,7.36 7.82,7.64C7.56,7.92 6.9,8.54 6.9,9.8C6.9,11.06 7.82,12.27 7.94,12.44C8.06,12.61 9.8,15.31 12.44,16.31C14.66,17.15 15.08,17 15.54,16.95C16,16.9 17.02,16.33 17.26,15.77C17.5,15.21 17.5,14.74 17.44,14.64C17.38,14.54 17.21,14.48 16.95,14.36C16.69,14.24 15.43,13.62 15.19,13.54C14.95,13.46 14.78,13.42 14.61,13.68C14.44,13.94 13.95,14.52 13.8,14.69C13.65,14.86 13.5,14.88 13.24,14.76C12.98,14.64 12.16,14.37 11.19,13.49C10.42,12.81 9.89,11.97 9.74,11.71C9.59,11.45 9.72,11.31 9.85,11.18C9.97,11.06 10.11,10.87 10.24,10.72C10.37,10.57 10.41,10.47 10.49,10.3C10.57,10.13 10.53,9.98 10.47,9.86C10.41,9.74 9.89,8.46 9.68,7.94C9.47,7.45 9.25,7.51 9.09,7.5C8.94,7.5 8.77,7.29 8.58,7.29Z" fill="#25D366"/>
    </g>
</svg>
